<svg width="199" height="82" viewBox="0 0 199 82" fill="none" xmlns="http://www.w3.org/2000/svg">
<path fill-rule="evenodd" clip-rule="evenodd" d="M52.9438 50.1366L57.2955 39.2449C56.5701 39.2449 56.5701 38.5195 56.5701 38.5195L60.1964 34.8891C60.1964 34.1629 58.0209 34.1629 58.0209 34.1629L58.7456 31.9843H61.6472C61.9301 31.1338 60.9218 29.8064 60.9218 29.8064C56.5701 27.6278 55.1193 26.9023 49.3175 24.7237C43.5157 22.5458 45.6581 23.9974 45.6581 23.9974C45.3714 24.8517 46.4166 26.1761 46.4166 26.1761L57.2955 29.8064L47.142 29.0802C47.142 30.5326 48.5921 31.9843 48.5921 31.9843H50.7683L49.3175 38.5195H52.2184L52.9438 50.1366ZM52.2184 34.1629C52.2184 34.1629 51.818 35.2138 52.2184 35.6146C52.6195 36.0161 53.4156 36.1223 53.6692 35.6146C53.922 35.1076 54.3946 34.8891 54.3946 34.8891L56.5701 34.1629H52.2184Z" fill="#CD8E49"/>
<path d="M7.97793 10.2024C5.37368 10.4397 0.0744222 6.46037 0 4.3939C27.5603 -2.8668 107.064 -1.09948 102.262 9.47619C98.6362 17.463 99.0064 20.3219 94.2845 25.4499C89.3789 30.7774 78.3285 34.8891 78.3285 34.8891C84.131 35.6146 89.2074 32.7105 89.2074 32.7105C89.2074 32.7105 85.1108 39.6525 81.2301 42.8752C77.5241 45.9533 70.3505 48.6842 70.3505 48.6842C70.3505 53.7669 78.3285 48.6842 78.3285 48.6842C78.3285 48.6842 64.5487 69.0144 51.4936 81.357L36.9884 57.3972C42.7909 60.3013 44.9664 59.5751 46.4172 56.671C35.5383 55.2186 31.912 43.6014 31.912 43.6014C36.263 46.5055 41.3401 46.5055 42.0655 45.0539C38.4392 42.1498 26.8349 37.7932 24.659 26.9023C24.4791 26.0013 24.659 23.9974 18.1316 23.272C12.3295 23.272 11.3625 21.5777 11.6042 20.3671C19.5822 20.1253 34.6677 20.0771 36.9884 21.8196C39.3091 23.562 48.1096 49.1678 52.219 61.753C60.197 53.0407 65.9995 28.354 65.9995 28.354C65.9995 16.7368 61.6478 13.1065 40.6147 10.2024C40.6147 10.2024 15.9559 9.47619 7.97793 10.2024Z" fill="#FFE7D1"/>
<path d="M80.5088 62.2284C80.5088 61.8336 80.5607 61.4645 80.6631 61.1217C80.4576 61.0532 80.6202 60.1175 81.1522 58.3148C81.4607 56.8044 82.0695 55.2081 82.9785 53.5259C83.5782 52.5819 83.9725 51.9981 84.1614 51.7751C85.1389 50.4357 86.1849 49.3117 87.2994 48.4017C87.4017 48.2985 87.565 48.1787 87.7877 48.0408L87.9939 47.8096L89.6396 46.7022L89.8451 46.6509C89.9481 46.6163 90.0166 46.5824 90.0512 46.5477C90.0851 46.5477 90.1543 46.5131 90.2567 46.4445C90.3598 46.376 90.4456 46.3421 90.514 46.3421L90.566 46.2389C90.566 46.2042 90.5825 46.1876 90.6171 46.1876H90.7458C90.8481 46.0844 90.9858 45.9985 91.1574 45.93C91.1913 45.8953 91.2515 45.8614 91.3373 45.8268C91.423 45.7921 91.4832 45.7582 91.5171 45.7236C91.5517 45.7236 91.5856 45.707 91.6202 45.6724L91.7233 45.5948C91.7918 45.5609 91.9114 45.5179 92.083 45.4667C92.2719 45.4147 92.4005 45.3718 92.469 45.3379C92.8122 45.2347 93.0432 45.1661 93.1636 45.1315C93.1974 45.1315 93.2403 45.1059 93.2923 45.0546C93.3434 45.0027 93.3863 44.977 93.4202 44.977C93.4548 44.9431 93.5406 44.9258 93.6775 44.9258H93.8837C93.9176 44.8912 93.9695 44.8738 94.038 44.8738C94.1238 44.8738 94.1832 44.8572 94.2178 44.8226L94.5264 44.6682C94.5948 44.6335 94.6979 44.6169 94.8349 44.6169L95.8899 44.3337C96.1984 44.3337 96.4467 44.3164 96.6356 44.2817C96.6695 44.2817 96.7387 44.2644 96.841 44.2305C96.9441 44.1958 97.0299 44.1793 97.0984 44.1793C97.1669 44.1446 97.2783 44.1273 97.4325 44.1273C97.6041 44.1273 97.7418 44.1273 97.8441 44.1273C98.5477 44.0587 99.0361 44.2734 99.3108 44.7714C99.3446 44.8053 99.3702 44.8573 99.3875 44.9258C99.4048 44.9944 99.4221 45.0629 99.4394 45.1315C99.456 45.2 99.465 45.252 99.465 45.2859C99.5674 46.1959 99.6276 47.0969 99.6449 47.9896C99.6449 48.6932 99.6276 49.2002 99.5937 49.5091C99.5245 50.8131 99.0444 51.5175 98.1534 51.6199H97.9472H97.6387L96.893 51.7751C95.3496 52.1179 93.9176 52.7793 92.5977 53.7571C91.2771 54.7184 90.2311 55.8861 89.4598 57.2594C89.4252 57.3279 89.3913 57.4394 89.3567 57.5939C89.3221 57.731 89.2882 57.8342 89.2536 57.9027L89.0482 58.2636C89.0482 58.2975 89.0655 58.3321 89.0993 58.3668L89.1513 58.4692C89.1513 58.641 89.1678 58.7442 89.2024 58.7781C89.2709 58.8813 89.3567 58.9755 89.4598 59.0613H90.0512C90.1197 59.0613 90.2311 59.0704 90.3854 59.0877C90.5396 59.1043 90.66 59.1133 90.7458 59.1133H90.797H90.9512C90.9858 59.0787 91.0197 59.0787 91.0543 59.1133L91.1055 59.1646C92.4434 59.1646 93.4465 59.1472 94.1147 59.1133C94.7837 59.1133 95.2721 59.096 95.5814 59.0613C95.7183 59.0613 95.9238 59.0787 96.1984 59.1133C96.4896 59.1472 96.7041 59.1646 96.841 59.1646H96.9441C97.5446 59.1646 97.9472 59.1992 98.1534 59.2678C98.1873 59.3017 98.2219 59.319 98.2557 59.319C98.5643 59.5254 98.7614 59.8252 98.8472 60.22C98.8818 60.3578 98.8991 60.5808 98.8991 60.8897V62.0483V64.0055C98.8991 64.0394 98.8818 64.074 98.8472 64.1087L98.8991 64.1599C98.933 64.2285 98.9503 64.2797 98.9503 64.3143C98.9503 65.3268 98.7787 65.9792 98.4356 66.2715C98.1271 66.5118 97.6816 66.6406 97.0984 66.6572C96.7041 66.6572 96.4129 66.6406 96.224 66.606C95.8809 66.5713 95.3496 66.5713 94.6295 66.606C93.9266 66.6406 93.4721 66.6572 93.2659 66.6572C92.9235 66.6572 92.4005 66.6489 91.697 66.6316C91.0114 66.6143 90.514 66.606 90.2055 66.606C89.897 66.606 89.6652 66.6406 89.5109 66.7092C89.374 66.7431 89.2709 66.829 89.2024 66.9668C89.0993 67.0693 89.0482 67.1725 89.0482 67.2757V67.5846C89.0482 67.6531 89.1166 67.7993 89.2536 68.0223V68.1767L89.6396 68.82C89.7081 68.9232 89.8195 69.0777 89.9737 69.2841C90.128 69.4897 90.2401 69.6269 90.3086 69.6962C90.4802 69.9365 90.9001 70.3998 91.569 71.0861C91.6375 71.1546 91.7233 71.2578 91.8256 71.3949C91.946 71.5328 92.0401 71.6352 92.1086 71.7045C92.1771 71.7731 92.8287 72.1588 94.0636 72.8632C95.1095 73.4297 96.0697 73.7988 96.9441 73.9698C97.0126 74.0045 97.1586 74.0218 97.3813 74.0218C97.4498 74.0218 97.5446 74.0301 97.6643 74.0474C97.7847 74.0647 97.8787 74.0904 97.9472 74.125C98.2219 74.1936 98.4702 74.2704 98.693 74.3563C98.7961 74.3909 98.933 74.4934 99.1046 74.6652L99.3619 74.9228C99.465 75.0945 99.5245 75.2919 99.5418 75.5149V75.8238V76.0302C99.5764 76.3044 99.5937 76.7255 99.5937 77.292C99.5937 77.8924 99.5764 78.3557 99.5418 78.6819C99.5418 79.2484 99.5162 79.6695 99.465 79.9437C99.465 80.5788 99.4477 80.9306 99.4131 80.9992L99.2588 81.3088L99.1046 81.4112C99.0361 81.4805 98.9503 81.5145 98.8472 81.5145C98.5733 81.6516 98.2904 81.7209 97.9984 81.7209C97.7245 81.7209 97.5356 81.6862 97.4325 81.6177H96.7899C96.361 81.5491 96.0615 81.4805 95.8899 81.4112H95.6837C95.6152 81.4112 95.5212 81.3774 95.4008 81.3088C95.2811 81.2395 95.178 81.2056 95.0922 81.2056C95.0584 81.2056 94.9982 81.2139 94.9124 81.2312C94.8266 81.2485 94.7491 81.2395 94.6806 81.2056C94.4406 81.1709 94.1576 81.0851 93.8318 80.9479L92.2628 80.3046C91.423 80.0296 90.9685 79.8752 90.9001 79.8405C90.7285 79.772 90.6939 79.6778 90.797 79.5573C90.66 79.6951 89.9572 79.2914 88.6877 78.3474L88.4048 78.2442C88.234 78.1757 88.1136 78.1071 88.0451 78.0386C87.942 77.9354 87.7539 77.7809 87.4792 77.5753C87.3422 77.4721 87.1278 77.283 86.8358 77.0088C86.5619 76.7165 86.3647 76.5108 86.2443 76.3903C85.7131 75.927 85.0185 75.1548 84.1614 74.073L83.7242 73.5065C83.6557 73.4033 83.57 73.2323 83.4669 72.992C83.3638 72.7344 83.278 72.5543 83.2095 72.4511C83.1757 72.3825 83.1155 72.305 83.0297 72.2191C82.9612 72.1332 82.9093 72.0737 82.8754 72.039L82.8235 71.807C82.3268 71.0002 82.0266 70.46 81.9235 70.1851C81.855 69.9794 81.7436 69.6615 81.5894 69.2321C81.4351 68.8035 81.3237 68.4682 81.2545 68.2279L81.1003 67.7134C81.1003 67.6787 81.1003 67.6102 81.1003 67.507C81.1003 67.3872 81.0837 67.2923 81.0491 67.2237C81.0145 67.0866 80.9979 66.8975 80.9979 66.6572C80.9979 66.5887 80.955 66.4945 80.8692 66.374C80.8008 66.2368 80.7488 66.1337 80.715 66.0651C80.6804 65.9626 80.6631 65.8075 80.6631 65.6018C80.6631 65.3788 80.6465 65.2153 80.6119 65.1129C80.5773 64.8379 80.5607 64.4349 80.5607 63.9023C80.5261 63.5588 80.5088 63.0013 80.5088 62.2284ZM105.638 64.9841C105.62 64.0228 105.612 63.3184 105.612 62.8725C105.612 62.4092 105.62 61.7056 105.638 60.7609C105.655 59.7996 105.663 59.0787 105.663 58.5981C105.663 58.1001 105.646 57.3709 105.612 56.4096C105.578 55.431 105.56 54.7101 105.56 54.2468C105.56 53.7488 105.569 53.0279 105.586 52.084C105.603 51.1393 105.612 50.4447 105.612 49.998C105.612 49.5347 105.62 48.8138 105.638 47.8352C105.655 46.8393 105.663 46.1183 105.663 45.6724C105.663 45.3974 105.681 45.1834 105.715 45.0283C105.852 44.7879 106.015 44.6079 106.204 44.4881C106.375 44.4881 106.495 44.4708 106.563 44.4361C106.632 44.4361 106.735 44.4452 106.872 44.4625C107.027 44.4791 107.138 44.4881 107.207 44.4881C107.601 44.4881 108.175 44.4791 108.93 44.4625C109.701 44.4452 110.284 44.4361 110.679 44.4361C110.816 44.4361 111.022 44.4708 111.296 44.5393L111.785 44.8738V45.1834C111.887 45.4923 111.939 45.6724 111.939 45.7236V49.4571C111.939 49.8865 111.947 50.5216 111.965 51.363C111.982 52.2038 111.99 52.8388 111.99 53.2682C111.99 53.6803 111.982 54.3071 111.965 55.1478C111.947 55.9893 111.939 56.6243 111.939 57.053V60.8385C111.939 61.2671 111.93 61.9029 111.914 62.7436C111.896 63.5851 111.887 64.2202 111.887 64.6488C111.887 65.0436 111.905 65.6621 111.939 66.5028C111.973 67.3443 111.99 67.9793 111.99 68.4087C111.99 68.82 111.973 69.4468 111.939 70.2883C111.905 71.129 111.887 71.7641 111.887 72.1935V72.6568C111.887 72.6914 111.896 72.76 111.914 72.8632C111.93 72.9656 111.939 73.0605 111.939 73.1464C112.008 73.6436 112.111 73.9872 112.248 74.1762C112.453 74.5198 112.65 74.7337 112.839 74.8196C113.045 74.8889 113.345 74.9228 113.739 74.9228H113.842L113.945 74.974C114.014 75.0087 114.065 75.0087 114.1 74.974C114.134 74.974 114.168 74.9574 114.203 74.9228L114.254 74.8716C114.289 74.8716 114.34 74.8799 114.408 74.8972C114.477 74.9145 114.529 74.9228 114.562 74.9228C114.769 74.9228 115.12 74.9401 115.617 74.974C116.114 75.0087 116.466 75.026 116.672 75.026C116.98 75.026 117.212 75.0599 117.366 75.1292C117.64 75.2663 117.794 75.3778 117.829 75.4637C117.898 75.5669 117.932 75.7379 117.932 75.9782C117.966 76.0814 117.966 76.2449 117.932 76.4679C117.897 76.6735 117.88 76.8114 117.88 76.8799V79.9437V80.6135C117.812 80.9223 117.572 81.137 117.16 81.2568H116.466C115.934 81.2568 115.137 81.2659 114.074 81.2824C113.028 81.2998 112.239 81.3088 111.707 81.3088C111.193 81.3088 110.396 81.3171 109.316 81.3344C108.253 81.3517 107.455 81.36 106.924 81.36C106.821 81.36 106.632 81.3254 106.358 81.2568C106.186 81.2568 106.006 81.137 105.818 80.8967C105.749 80.8621 105.715 80.7506 105.715 80.5615C105.612 80.2526 105.56 80.0809 105.56 80.047C105.56 79.5837 105.578 78.8793 105.612 77.9354C105.646 76.9914 105.663 76.2705 105.663 75.7725C105.663 75.2746 105.655 74.5454 105.638 73.5841C105.62 72.6229 105.612 71.9102 105.612 71.4469C105.612 70.949 105.62 70.228 105.638 69.2841C105.655 68.3394 105.663 67.6358 105.663 67.1725C105.663 66.6745 105.655 65.9453 105.638 64.9841ZM123.23 66.1171C123.23 65.7223 123.248 65.1212 123.282 64.3143C123.333 63.5075 123.359 62.8981 123.359 62.486C123.359 62.0913 123.342 61.4991 123.307 60.7096C123.29 59.9202 123.282 59.319 123.282 58.9069C123.282 58.4783 123.264 57.8688 123.23 57.0793C123.196 56.2891 123.179 55.697 123.179 55.3022C123.179 54.8728 123.196 54.2641 123.23 53.4739C123.264 52.6671 123.282 52.0667 123.282 51.6719C123.282 51.363 123.282 50.8651 123.282 50.178C123.282 49.4918 123.264 48.9682 123.23 48.6073C123.23 48.2985 123.221 47.8005 123.205 47.1142C123.188 46.428 123.179 45.9044 123.179 45.5435C123.179 45.5089 123.188 45.4577 123.205 45.3891C123.221 45.3206 123.23 45.2686 123.23 45.2347C123.264 45.1315 123.282 45.0117 123.282 44.8738C123.35 44.6335 123.445 44.4881 123.565 44.4361C123.633 44.4022 123.719 44.4022 123.822 44.4361L123.976 44.4881H124.285C124.679 44.4881 125.254 44.4708 126.008 44.4361C126.763 44.4022 127.329 44.3849 127.706 44.3849C128.1 44.3849 128.674 44.4022 129.429 44.4361C130.184 44.4708 130.749 44.4881 131.126 44.4881C131.521 44.4881 132.095 44.4791 132.85 44.4625C133.604 44.4452 134.161 44.4361 134.522 44.4361H137.942C138.148 44.4361 138.302 44.4535 138.405 44.4881C138.645 44.5567 138.774 44.7028 138.791 44.9258C138.86 45.1315 138.894 45.2859 138.894 45.3891C138.894 45.9556 138.885 46.7963 138.868 47.9128C138.851 49.0111 138.843 49.8436 138.843 50.4101V50.7189C138.808 50.8907 138.663 51.0112 138.405 51.0798H137.84L137.736 51.131C137.393 51.131 136.854 51.1227 136.116 51.1054C135.396 51.0881 134.848 51.0798 134.47 51.0798C134.127 51.0798 133.587 51.1054 132.85 51.1566C132.13 51.1913 131.598 51.2086 131.255 51.2086H130.612C130.149 51.3457 129.901 51.5514 129.866 51.8263V52.3672V56.1008C129.866 56.5294 129.874 57.1562 129.892 57.9803C129.926 58.8045 129.944 59.4222 129.944 59.8343C129.944 59.9367 129.977 60.1349 130.046 60.4264C130.149 60.6667 130.321 60.8038 130.561 60.8385C130.595 60.8385 130.664 60.8814 130.766 60.9673C130.869 61.0358 130.963 61.0697 131.049 61.0697C131.443 61.0697 132.018 61.0532 132.772 61.0185C133.544 60.9673 134.127 60.9417 134.522 60.9417H138.045C138.148 60.9417 138.268 60.9839 138.405 61.0697C138.542 61.1044 138.654 61.2415 138.739 61.4818C138.739 61.5165 138.748 61.585 138.765 61.6882C138.782 61.7907 138.791 61.8766 138.791 61.9459V66.9149V67.2757C138.722 67.4475 138.594 67.5499 138.405 67.5846C138.199 67.6531 138.011 67.6961 137.84 67.7134H137.736C137.393 67.7134 136.854 67.7043 136.116 67.6878C135.396 67.6704 134.848 67.6614 134.47 67.6614H131.203C131.101 67.6614 130.904 67.6961 130.612 67.7646C130.303 67.7993 130.114 68.0049 130.046 68.3823C129.977 68.6573 129.944 68.8547 129.944 68.9752V72.8112V76.6735C129.944 77.1029 129.952 77.7463 129.969 78.6051C129.986 79.4631 129.995 80.0982 129.995 80.5103L129.944 80.8967C129.909 81.137 129.729 81.2568 129.403 81.2568C129.197 81.2915 128.914 81.3088 128.554 81.3088H124.13C124.096 81.3088 124.011 81.3254 123.873 81.36C123.736 81.3947 123.633 81.3947 123.565 81.36C123.428 81.3254 123.359 81.1883 123.359 80.9479C123.325 80.8794 123.299 80.7506 123.282 80.5615C123.282 80.1667 123.264 79.5746 123.23 78.7851C123.196 77.9783 123.179 77.3779 123.179 76.9824V73.3521C123.179 72.9227 123.196 72.305 123.23 71.4981C123.264 70.6913 123.282 70.0909 123.282 69.6962V66.1171H123.23ZM161.759 81.7209C161.759 81.7209 161.725 81.7035 161.656 81.6689C161.553 81.6689 161.399 81.6862 161.193 81.7209C160.988 81.7548 160.825 81.7721 160.705 81.7721C160.533 81.7721 160.276 81.7374 159.933 81.6689C159.864 81.6689 159.753 81.6516 159.599 81.6177C159.462 81.583 159.359 81.5657 159.29 81.5657C159.221 81.5657 159.11 81.5491 158.955 81.5145C158.801 81.4806 158.672 81.4459 158.57 81.4112L157.386 81.2568C156.787 81.0851 156.401 80.9653 156.229 80.8967C156.161 80.8621 156.058 80.8282 155.921 80.7935C155.784 80.7423 155.681 80.6993 155.612 80.6647C155.046 80.459 154.626 80.2873 154.352 80.1502C153.957 80.0123 153.623 79.8496 153.349 79.6605C153.005 79.4887 152.474 79.1972 151.754 78.7851C150.88 78.1847 150.39 77.8495 150.288 77.7809L149.49 77.1888C149.387 77.1203 149.233 76.9824 149.028 76.7767C148.993 76.7421 148.95 76.6909 148.899 76.6223C148.848 76.5538 148.788 76.5018 148.719 76.4679C148.667 76.4166 148.624 76.3737 148.59 76.3391C148.59 76.3044 148.556 76.2878 148.487 76.2878C148.487 76.2878 148.47 76.2878 148.436 76.2878V76.2358V76.1846V76.1334L148.282 76.0814C148.213 76.0475 148.162 76.0129 148.128 75.9782L147.664 75.3605C147.63 75.2919 147.527 75.206 147.356 75.1028C147.201 74.9831 147.107 74.8889 147.073 74.8196L146.507 74.0218C146.233 73.6783 146.036 73.4206 145.915 73.2489L145.324 72.1935C145.221 72.0564 145.135 71.9102 145.067 71.7558C144.998 71.584 144.921 71.3949 144.835 71.1893C144.75 70.9663 144.672 70.8028 144.604 70.7004C144.569 70.6311 144.526 70.5113 144.475 70.3395C144.424 70.1677 144.381 70.048 144.346 69.9794L143.858 68.82C143.686 68.3228 143.515 67.7563 143.343 67.1213C143.309 67.0181 143.283 66.8719 143.267 66.6836C143.249 66.4772 143.241 66.3227 143.241 66.2195C143.138 65.9107 143.078 65.7223 143.06 65.653C143.027 65.6191 143.027 65.5589 143.06 65.473C143.095 65.3698 143.095 65.3012 143.06 65.2673C143.06 65.2327 143.052 65.1814 143.035 65.1129C143.017 65.0436 143.009 64.9923 143.009 64.9584L142.855 64.3143V63.7991C142.855 63.7305 142.872 63.6537 142.906 63.5678C142.941 63.4819 142.958 63.4217 142.958 63.3878C142.958 63.3531 142.949 63.3184 142.932 63.2845C142.915 63.2333 142.906 63.1904 142.906 63.1557V63.0525C142.906 63.0186 142.898 62.9501 142.881 62.8469C142.863 62.7436 142.855 62.6578 142.855 62.5892V62.486V62.1771V61.4818C142.855 61.3794 142.88 61.2332 142.932 61.0441C142.984 60.8385 143.009 60.684 143.009 60.5808C143.009 60.5123 143.009 60.3752 143.009 60.1688C143.009 59.9458 143.027 59.7996 143.06 59.7311C143.06 59.6625 143.078 59.594 143.112 59.5254C143.146 59.4561 143.163 59.3876 143.163 59.319C143.198 59.2504 143.224 59.1563 143.241 59.0357C143.275 58.916 143.292 58.8127 143.292 58.7269C143.326 58.6237 143.378 58.4783 143.446 58.2892C143.515 58.1001 143.566 57.9547 143.601 57.8515C143.635 57.731 143.669 57.5509 143.704 57.3106C143.738 57.0703 143.772 56.8985 143.806 56.7961C143.841 56.6756 143.918 56.5128 144.038 56.3064C144.158 56.1008 144.235 55.9463 144.27 55.8431C144.321 55.7399 144.381 55.5681 144.449 55.3278C144.518 55.0709 144.586 54.8902 144.655 54.7877C144.69 54.6845 144.767 54.5474 144.887 54.3756C145.007 54.1865 145.084 54.075 145.118 54.0404C145.187 53.9379 145.298 53.7142 145.453 53.3714C145.624 53.0106 145.761 52.7447 145.864 52.5729C146.207 52.0064 146.49 51.586 146.713 51.3111C146.781 51.2425 146.901 51.1393 147.073 51.0022C147.244 50.8478 147.365 50.7189 147.433 50.6157C147.467 50.5472 147.527 50.453 147.613 50.3325C147.716 50.2127 147.802 50.1351 147.87 50.1012C147.87 50.0666 147.853 50.0236 147.819 49.9724C148.162 49.6289 148.436 49.3886 148.642 49.2515C148.676 49.2168 148.736 49.1482 148.822 49.045C148.925 48.9253 149.019 48.8311 149.104 48.7625C149.19 48.6932 149.268 48.6247 149.336 48.5561C149.371 48.5222 149.405 48.4793 149.439 48.4273C149.473 48.3761 149.516 48.3331 149.568 48.2985C149.619 48.2646 149.662 48.2299 149.697 48.196L150.134 48.0408C150.476 47.7666 150.759 47.5519 150.983 47.3975C151.479 47.0028 151.831 46.7368 152.037 46.599L153.143 45.9812C153.417 45.8441 153.872 45.6641 154.506 45.4403C154.54 45.4064 154.635 45.3462 154.789 45.2603C154.943 45.1744 155.054 45.1141 155.124 45.0802C155.226 45.0456 155.364 45.0026 155.535 44.9514C155.723 44.9002 155.852 44.8572 155.921 44.8226C156.658 44.6169 157.395 44.4535 158.133 44.3337C158.441 44.2305 158.639 44.1793 158.724 44.1793C159.153 44.0761 159.376 44.0241 159.393 44.0241H159.933C159.968 44.0241 160.036 44.0241 160.139 44.0241C160.241 44.0241 160.31 44.0075 160.345 43.9728H160.988C161.022 43.9728 161.056 43.9555 161.09 43.9216L161.142 43.8696H161.759H161.888H162.402C162.505 43.8696 162.642 43.8787 162.813 43.896C163.002 43.9126 163.131 43.9216 163.2 43.9216H163.559C163.628 43.9216 163.722 43.9216 163.842 43.9216C163.963 43.9216 164.066 43.9389 164.151 43.9728C164.22 43.9728 164.322 43.9985 164.46 44.0504C164.597 44.1017 164.7 44.1273 164.768 44.1273C164.905 44.1619 165.103 44.1958 165.36 44.2305C165.635 44.2644 165.84 44.299 165.977 44.3337C166.046 44.3676 166.14 44.3932 166.26 44.4105C166.398 44.4279 166.5 44.4361 166.568 44.4361C167.134 44.5393 167.641 44.7028 168.086 44.9258C168.515 45.0976 168.746 45.1834 168.781 45.1834L169.63 45.4923C169.733 45.5609 169.887 45.6724 170.092 45.8268C170.299 45.9639 170.453 46.0498 170.555 46.0844C170.624 46.1183 170.795 46.2042 171.07 46.3421C171.361 46.4792 171.585 46.599 171.739 46.7022C171.807 46.7707 171.936 46.8566 172.124 46.9598C172.313 47.0457 172.442 47.106 172.51 47.1399C172.853 47.4148 173.136 47.6634 173.359 47.8864L173.95 48.3505C174.157 48.5561 174.311 48.6932 174.413 48.7625C174.653 49.0029 174.842 49.1829 174.979 49.3027L175.365 49.6115C175.4 49.6462 175.434 49.6974 175.468 49.7667C175.502 49.8353 175.537 49.8865 175.571 49.9212C175.605 49.9551 175.674 50.0153 175.777 50.1012C175.88 50.1698 175.965 50.2383 176.034 50.3069C176.12 50.3754 176.231 50.5133 176.368 50.7189C176.403 50.7536 176.445 50.8304 176.497 50.951C176.548 51.0707 176.608 51.174 176.677 51.2598L177.14 51.8776C177.448 52.307 177.646 52.5729 177.731 52.6761L178.195 53.2938C178.228 53.3285 178.271 53.4053 178.323 53.5259C178.392 53.6283 178.443 53.7232 178.478 53.8091C178.511 53.895 178.546 53.9718 178.58 54.0404C178.786 54.3839 178.923 54.6498 178.991 54.8389C179.095 55.0107 179.215 55.3113 179.352 55.7399C179.42 55.8778 179.489 56.0751 179.557 56.332C179.643 56.5723 179.721 56.7614 179.789 56.8985C179.823 57.0364 179.883 57.2421 179.969 57.517C180.055 57.7739 180.115 57.9547 180.149 58.0572C180.183 58.195 180.218 58.3924 180.252 58.65C180.287 58.8903 180.32 59.0614 180.355 59.1646C180.389 59.2331 180.406 59.3537 180.406 59.5254C180.406 59.6964 180.423 59.8426 180.458 59.9631C180.458 60.0316 180.466 60.1431 180.484 60.2976C180.518 60.452 180.535 60.5808 180.535 60.684C180.603 60.8211 180.638 60.9326 180.638 61.0185C180.638 61.0871 180.646 61.1729 180.664 61.2762C180.681 61.3794 180.689 61.4645 180.689 61.5338V61.585C180.689 61.6536 180.698 61.7741 180.715 61.9459C180.732 62.1003 180.741 62.2284 180.741 62.3316C180.775 62.4001 180.767 62.486 180.715 62.5892C180.664 62.6924 180.638 62.7783 180.638 62.8469C180.638 62.9154 180.655 63.0269 180.689 63.1813C180.724 63.3184 180.741 63.439 180.741 63.5422C180.741 63.8511 180.724 64.074 180.689 64.2111C180.689 64.2797 180.655 64.4258 180.586 64.6488V65.0097C180.586 65.1129 180.543 65.2756 180.458 65.4986V66.0651C180.458 66.1337 180.432 66.2459 180.381 66.4003C180.329 66.5374 180.287 66.6572 180.252 66.7604C180.218 66.8975 180.175 67.1039 180.123 67.3782C180.072 67.6358 180.029 67.8332 179.995 67.971C179.961 68.0735 179.9 68.2543 179.815 68.5112C179.729 68.7515 179.669 68.9232 179.635 69.0265C179.6 69.095 179.566 69.1892 179.532 69.3097C179.497 69.4295 179.481 69.5244 179.481 69.593L179.146 70.2883C179.112 70.3907 179.026 70.6054 178.889 70.9316C178.751 71.2405 178.632 71.4808 178.529 71.6526C178.254 72.082 178.04 72.4165 177.886 72.6568C177.817 72.76 177.723 72.9317 177.603 73.172C177.483 73.395 177.389 73.5585 177.32 73.661C177.286 73.7295 177.191 73.8327 177.037 73.9698C176.9 74.1077 176.797 74.2365 176.728 74.3563C176.659 74.4248 176.591 74.5363 176.523 74.6908C176.454 74.8459 176.386 74.9574 176.317 75.026C176.214 75.1292 176.085 75.2919 175.931 75.5149C175.896 75.5496 175.837 75.5925 175.751 75.6437C175.665 75.695 175.605 75.7379 175.571 75.7725C175.502 75.8411 175.382 75.9782 175.211 76.1846C175.057 76.3737 174.928 76.5018 174.825 76.5711L174.362 76.8799C174.327 76.9138 174.276 76.9658 174.208 77.0344L174.157 77.1888L173.668 77.4977L172.896 78.1418C172.656 78.3128 172.287 78.5448 171.79 78.8363C171.687 78.871 171.558 78.9486 171.404 79.0684C171.267 79.1889 171.147 79.2831 171.044 79.3516C170.976 79.3863 170.873 79.4029 170.736 79.4029C170.667 79.4375 170.572 79.5234 170.453 79.6605C170.35 79.781 170.264 79.8579 170.196 79.8925C169.733 80.0643 169.45 80.1841 169.347 80.2526L169.038 80.3046C168.867 80.3385 168.746 80.3732 168.678 80.4071C167.906 80.682 167.306 80.8794 166.878 80.9992C166.312 81.1709 165.823 81.3088 165.411 81.4112C165.309 81.4112 165.128 81.4203 164.872 81.4376C164.632 81.4542 164.46 81.4806 164.357 81.5145L163.559 81.6689C163.525 81.6689 163.457 81.6862 163.354 81.7209C163.251 81.7548 163.165 81.7721 163.096 81.7721C163.063 81.7721 163.002 81.7721 162.917 81.7721C162.848 81.7721 162.78 81.7721 162.711 81.7721C162.642 81.7721 162.591 81.7721 162.556 81.7721C162.454 81.806 162.308 81.806 162.119 81.7721C161.948 81.7374 161.828 81.7209 161.759 81.7209ZM162.454 74.4595C163.997 74.3909 165.386 74.073 166.62 73.5065C167.563 73.0432 168.703 72.1761 170.041 70.906C171.173 69.7391 171.979 68.5285 172.459 67.2757C173.059 65.9363 173.376 64.4944 173.41 62.9501C173.445 62.1771 173.376 61.2671 173.205 60.22C172.999 59.4825 172.699 58.7095 172.305 57.9027C171.773 56.8217 171.105 55.8348 170.299 54.9421C169.733 54.3071 169.296 53.8686 168.986 53.6283C168.283 53.0626 167.477 52.5819 166.568 52.1864C165.763 51.7917 164.957 51.5348 164.151 51.4143C163.276 51.2425 162.497 51.1483 161.81 51.131C160.731 51.131 159.624 51.2945 158.493 51.6199C157.721 51.8949 156.863 52.2987 155.921 52.8305C154.978 53.4309 154.223 54.0148 153.657 54.5813C152.749 55.4913 152.063 56.384 151.6 57.2594C151.257 57.9283 150.956 58.7698 150.7 59.7823C150.305 61.2588 150.117 62.263 150.134 62.7949C150.134 63.5331 150.305 64.5373 150.648 65.8075C150.956 66.9751 151.325 67.9191 151.754 68.64C152.148 69.3436 152.817 70.1768 153.76 71.138C154.531 71.8756 155.372 72.485 156.281 72.9656C157.087 73.4297 158.09 73.7988 159.29 74.073C160.764 74.3307 161.819 74.4595 162.454 74.4595ZM193.575 44.1793C194.107 44.2817 194.364 44.3337 194.347 44.3337H194.398H194.552H194.604L194.681 44.2817C194.715 44.2817 194.732 44.299 194.732 44.3337C194.767 44.3337 194.887 44.3676 195.093 44.4361L195.195 44.4881L195.298 44.5393C195.333 44.574 195.35 44.7367 195.35 45.0283V45.3379V47.7064H195.452C195.452 47.9813 195.444 48.419 195.427 49.0194C195.41 49.6206 195.401 50.0839 195.401 50.4101C195.401 50.5472 195.384 50.6504 195.35 50.7189C195.281 50.8907 195.161 50.9939 194.99 51.0278H194.938C194.835 51.0278 194.707 50.9939 194.552 50.9254H194.398C194.364 50.9254 194.287 50.9336 194.166 50.951C194.047 50.9683 193.952 50.9766 193.883 50.9766C193.643 51.0112 193.309 51.1054 192.88 51.2598L192.238 51.7231C192.032 51.8263 191.843 51.9634 191.672 52.1352L191.286 52.6241C191.08 52.8991 190.977 53.0708 190.977 53.1394C190.977 53.1741 190.977 53.2509 190.977 53.3714C190.977 53.4739 190.96 53.5598 190.926 53.6283C190.755 54.0577 190.669 54.3154 190.669 54.4012L190.617 54.6325C190.617 54.6672 190.669 54.9421 190.772 55.4567L191.08 56.2032L191.338 56.7441C191.406 56.8127 191.483 56.9332 191.569 57.1049C191.672 57.2767 191.74 57.3965 191.775 57.465C191.912 57.6029 192.083 57.8515 192.289 58.2116C192.495 58.4866 192.64 58.7013 192.726 58.8557L193.241 59.4734C193.309 59.5766 193.403 59.7055 193.524 59.8599C193.661 59.997 193.764 60.1175 193.832 60.22C193.901 60.3232 194.004 60.452 194.141 60.6064C194.278 60.7609 194.347 60.8558 194.347 60.8897C194.415 60.9929 194.484 61.0961 194.552 61.1986C194.638 61.2844 194.724 61.3703 194.81 61.4562C194.896 61.5421 194.955 61.6197 194.99 61.6882C195.264 62.1169 195.419 62.3662 195.452 62.4348L195.89 63.0525C196.13 63.5158 196.284 63.7652 196.353 63.7991C196.387 63.9023 196.473 64.0311 196.61 64.1855C196.747 64.3226 196.842 64.4085 196.893 64.4432C196.961 64.5117 197.021 64.6149 197.073 64.752C197.124 64.8891 197.185 64.9923 197.253 65.0609C197.39 65.2673 197.476 65.43 197.51 65.5506C197.682 65.8248 197.819 66.0997 197.922 66.374C198.059 66.5804 198.153 66.7431 198.205 66.8636L198.514 67.9191C198.582 68.0908 198.651 68.4253 198.719 68.9232C198.754 68.9579 198.77 69.0264 198.77 69.1297C198.77 69.2321 198.77 69.318 198.77 69.3865C198.77 69.4212 198.779 69.4815 198.797 69.5673C198.813 69.6532 198.822 69.7301 198.822 69.7986V70.4427C198.822 70.7169 198.805 70.9316 198.77 71.0861L198.822 71.138C198.787 71.2066 198.77 71.3098 198.77 71.4469C198.77 71.584 198.754 71.6872 198.719 71.7558C198.719 72.0993 198.702 72.3652 198.668 72.5543L198.514 73.3521C198.445 73.6609 198.307 74.1333 198.102 74.7684C198.033 74.9055 197.913 75.1202 197.742 75.4117C197.587 75.6867 197.476 75.8758 197.407 75.9782C197.373 76.0129 197.313 76.15 197.228 76.3903C197.142 76.614 197.064 76.7767 196.996 76.8799C196.79 77.2227 196.61 77.4721 196.456 77.6265C196.319 77.8322 196.215 77.97 196.147 78.0386C195.975 78.2442 195.71 78.4936 195.35 78.7851C195.144 78.9908 194.99 79.1286 194.887 79.1972C194.853 79.2311 194.621 79.4119 194.192 79.7381L193.781 80.047C193.643 80.1502 193.395 80.3046 193.035 80.5103C192.932 80.5788 192.821 80.6308 192.701 80.6647C192.581 80.6993 192.435 80.7506 192.263 80.8191C192.109 80.8711 191.98 80.914 191.877 80.9479C191.071 81.2915 190.617 81.4806 190.515 81.5145C190.24 81.583 189.888 81.6516 189.459 81.7209H189.408C189.305 81.7209 189.211 81.7035 189.125 81.6689H188.868H188.817V81.7721H188.766L187.556 81.7209C187.523 81.7209 187.471 81.7374 187.402 81.7721H187.299H187.197C187.162 81.7721 187.051 81.7465 186.862 81.6945C186.69 81.6433 186.553 81.6003 186.45 81.5657C186.382 81.5318 186.27 81.5062 186.116 81.4888C185.962 81.4715 185.841 81.4632 185.756 81.4632C185.413 81.3947 185.156 81.3254 184.984 81.2568L184.547 81.0512C184.376 80.9479 184.29 80.8018 184.29 80.6135C184.29 80.5788 184.273 80.5276 184.239 80.459C184.17 80.3212 184.136 80.2187 184.136 80.1502V75.1804C184.136 75.1458 184.153 75.0863 184.187 75.0004C184.221 74.9145 184.239 74.8542 184.239 74.8196C184.239 74.6478 184.273 74.528 184.342 74.4595H184.984H185.087H185.242H185.447H185.55C185.619 74.4595 185.696 74.4678 185.782 74.4851C185.884 74.5024 185.954 74.5107 185.987 74.5107C186.022 74.5107 186.082 74.528 186.167 74.5627C186.253 74.5966 186.331 74.6139 186.399 74.6139H186.45H186.553L186.656 74.5627C186.725 74.528 186.776 74.5107 186.811 74.5107C187.051 74.5107 187.248 74.4934 187.402 74.4595C187.831 74.4595 188.148 74.4248 188.354 74.3563C188.663 74.2531 189.014 74.1077 189.408 73.9186C189.511 73.8839 189.631 73.8154 189.769 73.7129C189.906 73.6097 190.009 73.5412 190.077 73.5065C190.317 73.3009 190.548 73.0688 190.772 72.8112C190.84 72.7426 190.917 72.6394 191.003 72.5023C191.089 72.3652 191.132 72.2793 191.132 72.2447C191.166 72.1761 191.209 72.082 191.26 71.9614C191.311 71.8243 191.338 71.7384 191.338 71.7045C191.44 71.4981 191.5 71.3783 191.518 71.3437V71.2405C191.518 71.1719 191.509 71.0778 191.492 70.9572C191.475 70.8201 191.466 70.7169 191.466 70.6484C191.466 70.3395 191.406 70.0224 191.286 69.6962C191.149 69.2668 191.012 68.9323 190.874 68.692C190.737 68.4856 190.472 68.142 190.077 67.6614C190.009 67.5589 189.82 67.2923 189.511 66.8636C189.408 66.7265 189.305 66.5887 189.203 66.4516C189.117 66.2971 189.031 66.1427 188.946 65.9883C188.86 65.8338 188.782 65.705 188.714 65.6018L187.917 64.6488C187.848 64.5803 187.771 64.4688 187.685 64.3143C187.599 64.1426 187.539 64.0228 187.505 63.9543C187.437 63.885 187.342 63.7478 187.222 63.5422C187.102 63.3184 187 63.173 186.914 63.1045C186.571 62.6404 186.382 62.4001 186.348 62.3836C186.279 62.2803 186.185 62.1169 186.065 61.8939C185.945 61.6536 185.841 61.4818 185.756 61.3794C185.722 61.3101 185.628 61.1986 185.474 61.0441C185.318 60.8724 185.207 60.7353 185.139 60.6321C185.07 60.5296 184.976 60.3835 184.856 60.1944C184.753 59.9887 184.684 59.8516 184.65 59.7823C184.41 59.2851 184.273 58.9928 184.239 58.9069C184.239 58.873 184.187 58.6756 184.084 58.3148C184.05 58.2462 183.981 58.1174 183.878 57.9283C183.776 57.7227 183.698 57.5683 183.647 57.465C183.613 57.3965 183.595 57.285 183.595 57.1306C183.595 56.9761 183.595 56.8646 183.595 56.7961L183.441 55.9463C183.441 55.9117 183.424 55.8514 183.39 55.7655C183.355 55.6796 183.339 55.6201 183.339 55.5855C183.339 55.5169 183.347 55.4137 183.364 55.2766C183.382 55.1222 183.39 54.9934 183.39 54.8902C183.355 54.7877 183.339 54.5903 183.339 54.298V54.2468C183.339 54.1782 183.347 54.0833 183.364 53.9635C183.382 53.843 183.407 53.7488 183.441 53.6803V52.8818C183.476 52.8132 183.527 52.6934 183.595 52.5217C183.681 52.3499 183.724 52.2211 183.724 52.1352L183.878 51.6199C183.913 51.5514 183.947 51.3969 183.981 51.1566C184.016 50.899 184.067 50.7189 184.136 50.6157C184.239 50.3415 184.376 50.0409 184.547 49.7147C184.582 49.6808 184.616 49.6115 184.65 49.5091C184.684 49.4059 184.719 49.3373 184.753 49.3027C184.856 49.0624 185.053 48.7279 185.345 48.2985L185.936 47.5519L186.348 47.1399L186.502 47.0366L186.45 46.9342C186.45 46.8995 186.477 46.8739 186.528 46.8566C186.579 46.8393 186.639 46.8137 186.708 46.7798C186.776 46.7278 186.828 46.6848 186.862 46.6509L186.811 46.5477C187.016 46.3421 187.299 46.1018 187.66 45.8268C187.763 45.7236 187.951 45.6121 188.225 45.4923C188.517 45.3545 188.696 45.2686 188.766 45.2347C189.108 45.0629 189.494 44.9085 189.923 44.7714C190.489 44.565 190.909 44.4196 191.183 44.3337C191.354 44.299 191.603 44.2817 191.929 44.2817H192.032H192.186H192.392H192.521C192.624 44.2817 192.786 44.2644 193.009 44.2305C193.249 44.1958 193.438 44.1793 193.575 44.1793Z" fill="#FFE7D1"/>
</svg>
