<svg width="301" height="183" viewBox="0 0 301 183" fill="none" xmlns="http://www.w3.org/2000/svg">
<path fill-rule="evenodd" clip-rule="evenodd" d="M103.362 73.4299L107.713 62.5382C106.988 62.5382 106.988 61.8128 106.988 61.8128L110.614 58.1825C110.614 57.4563 108.439 57.4563 108.439 57.4563L109.164 55.2776H112.065C112.348 54.4271 111.34 53.0997 111.34 53.0997C106.988 50.9211 105.537 50.1956 99.7355 48.017C93.9337 45.8391 96.0761 47.2908 96.0761 47.2908C95.7893 48.1451 96.8346 49.4694 96.8346 49.4694L107.713 53.0997L97.56 52.3735C97.56 53.8259 99.01 55.2776 99.01 55.2776H101.186L99.7355 61.8128H102.636L103.362 73.4299ZM102.636 57.4563C102.636 57.4563 102.236 58.5072 102.636 58.9079C103.037 59.3095 103.834 59.4157 104.087 58.9079C104.34 58.4009 104.813 58.1825 104.813 58.1825L106.988 57.4563H102.636Z" fill="#CD8E49"/>
<path d="M58.3959 33.4957C55.7916 33.733 50.4924 29.7537 50.418 27.6872C77.9783 20.4265 157.482 22.1939 152.68 32.7695C149.054 40.7564 149.424 43.6153 144.702 48.7432C139.797 54.0708 128.746 58.1825 128.746 58.1825C134.549 58.9079 139.625 56.0038 139.625 56.0038C139.625 56.0038 135.529 62.9458 131.648 66.1686C127.942 69.2467 120.768 71.9775 120.768 71.9775C120.768 77.0603 128.746 71.9775 128.746 71.9775C128.746 71.9775 114.967 92.3077 101.912 104.65L87.4064 80.6906C93.2089 83.5947 95.3844 82.8685 96.8352 79.9644C85.9563 78.5119 82.33 66.8948 82.33 66.8948C86.6809 69.7989 91.7581 69.7989 92.4835 68.3472C88.8572 65.4431 77.2529 61.0866 75.077 50.1956C74.8971 49.2946 75.077 47.2908 68.5496 46.5653C62.7475 46.5653 61.7805 44.8711 62.0222 43.6605C70.0001 43.4186 85.0856 43.3704 87.4064 45.1129C89.7271 46.8553 98.5275 72.4612 102.637 85.0463C110.615 76.334 116.417 51.6473 116.417 51.6473C116.417 40.0302 112.066 36.3998 91.0326 33.4957C91.0326 33.4957 66.3738 32.7695 58.3959 33.4957Z" fill="#FFE7D1"/>
<path d="M130.927 85.5217C130.927 85.127 130.979 84.7578 131.081 84.4151C130.876 84.3465 131.038 83.4109 131.57 81.6081C131.879 80.0977 132.487 78.5014 133.396 76.8192C133.996 75.8753 134.391 75.2914 134.579 75.0684C135.557 73.729 136.603 72.605 137.717 71.695C137.82 71.5918 137.983 71.472 138.206 71.3342L138.412 71.1029L140.058 69.9955L140.263 69.9443C140.366 69.9096 140.435 69.8757 140.469 69.8411C140.503 69.8411 140.572 69.8064 140.675 69.7379C140.778 69.6693 140.864 69.6354 140.932 69.6354L140.984 69.5322C140.984 69.4975 141 69.481 141.035 69.481H141.164C141.266 69.3778 141.404 69.2919 141.575 69.2233C141.609 69.1887 141.669 69.1548 141.755 69.1201C141.841 69.0855 141.901 69.0516 141.935 69.0169C141.97 69.0169 142.004 69.0003 142.038 68.9657L142.141 68.8881C142.21 68.8542 142.329 68.8113 142.501 68.76C142.69 68.7081 142.819 68.6651 142.887 68.6312C143.23 68.528 143.461 68.4595 143.582 68.4248C143.615 68.4248 143.658 68.3992 143.71 68.348C143.761 68.296 143.804 68.2704 143.838 68.2704C143.873 68.2365 143.959 68.2191 144.096 68.2191H144.302C144.336 68.1845 144.387 68.1672 144.456 68.1672C144.542 68.1672 144.601 68.1506 144.636 68.1159L144.944 67.9615C145.013 67.9269 145.116 67.9103 145.253 67.9103L146.308 67.627C146.616 67.627 146.865 67.6097 147.054 67.575C147.087 67.575 147.157 67.5577 147.259 67.5238C147.362 67.4892 147.448 67.4726 147.516 67.4726C147.585 67.4379 147.696 67.4206 147.85 67.4206C148.022 67.4206 148.16 67.4206 148.262 67.4206C148.966 67.3521 149.454 67.5668 149.729 68.0647C149.763 68.0986 149.788 68.1506 149.805 68.2191C149.823 68.2877 149.84 68.3562 149.857 68.4248C149.874 68.4934 149.883 68.5453 149.883 68.5792C149.985 69.4893 150.046 70.3903 150.063 71.283C150.063 71.9866 150.046 72.4936 150.012 72.8024C149.942 74.1064 149.462 74.8108 148.571 74.9133H148.365H148.057L147.311 75.0684C145.768 75.4112 144.336 76.0726 143.016 77.0505C141.695 78.0117 140.649 79.1794 139.878 80.5527C139.843 80.6213 139.809 80.7328 139.775 80.8872C139.74 81.0243 139.706 81.1275 139.672 81.1961L139.466 81.5569C139.466 81.5908 139.483 81.6255 139.517 81.6601L139.569 81.7626C139.569 81.9343 139.586 82.0375 139.62 82.0714C139.689 82.1746 139.775 82.2688 139.878 82.3547H140.469C140.538 82.3547 140.649 82.3637 140.803 82.3811C140.958 82.3976 141.078 82.4067 141.164 82.4067H141.215H141.369C141.404 82.372 141.438 82.372 141.472 82.4067L141.523 82.4579C142.861 82.4579 143.864 82.4406 144.533 82.4067C145.202 82.4067 145.69 82.3893 145.999 82.3547C146.136 82.3547 146.342 82.372 146.616 82.4067C146.908 82.4406 147.122 82.4579 147.259 82.4579H147.362C147.963 82.4579 148.365 82.4925 148.571 82.5611C148.605 82.595 148.64 82.6123 148.674 82.6123C148.982 82.8187 149.179 83.1186 149.265 83.5133C149.3 83.6512 149.317 83.8742 149.317 84.183V85.3417V87.2988C149.317 87.3327 149.3 87.3674 149.265 87.402L149.317 87.4532C149.351 87.5218 149.368 87.573 149.368 87.6077C149.368 88.6202 149.197 89.2725 148.854 89.5648C148.545 89.8052 148.1 89.934 147.516 89.9506C147.122 89.9506 146.831 89.934 146.642 89.8993C146.299 89.8647 145.768 89.8647 145.047 89.8993C144.345 89.934 143.89 89.9506 143.684 89.9506C143.342 89.9506 142.819 89.9423 142.115 89.9249C141.429 89.9076 140.932 89.8993 140.623 89.8993C140.315 89.8993 140.083 89.934 139.929 90.0025C139.792 90.0364 139.689 90.1223 139.62 90.2602C139.517 90.3626 139.466 90.4658 139.466 90.569V90.8779C139.466 90.9465 139.535 91.0926 139.672 91.3156V91.47L140.058 92.1134C140.126 92.2166 140.237 92.371 140.392 92.5774C140.546 92.7831 140.658 92.9202 140.727 92.9895C140.898 93.2298 141.318 93.6931 141.987 94.3794C142.055 94.4479 142.141 94.5512 142.244 94.6883C142.364 94.8261 142.458 94.9286 142.527 94.9979C142.595 95.0664 143.247 95.4521 144.482 96.1565C145.528 96.723 146.488 97.0921 147.362 97.2632C147.431 97.2978 147.577 97.3151 147.799 97.3151C147.868 97.3151 147.963 97.3234 148.082 97.3407C148.203 97.3581 148.297 97.3837 148.365 97.4183C148.64 97.4869 148.888 97.5637 149.111 97.6496C149.214 97.6843 149.351 97.7867 149.523 97.9585L149.78 98.2161C149.883 98.3879 149.942 98.5853 149.96 98.8082V99.1171V99.3235C149.994 99.5977 150.012 100.019 150.012 100.585C150.012 101.186 149.994 101.649 149.96 101.975C149.96 102.542 149.934 102.963 149.883 103.237C149.883 103.872 149.866 104.224 149.831 104.293L149.677 104.602L149.523 104.705C149.454 104.774 149.368 104.808 149.265 104.808C148.991 104.945 148.708 105.014 148.416 105.014C148.142 105.014 147.954 104.98 147.85 104.911H147.208C146.779 104.842 146.479 104.774 146.308 104.705H146.102C146.033 104.705 145.939 104.671 145.819 104.602C145.699 104.533 145.596 104.499 145.51 104.499C145.476 104.499 145.416 104.507 145.33 104.525C145.245 104.542 145.167 104.533 145.099 104.499C144.859 104.464 144.576 104.378 144.25 104.241L142.681 103.598C141.841 103.323 141.387 103.169 141.318 103.134C141.146 103.065 141.112 102.971 141.215 102.851C141.078 102.988 140.375 102.585 139.106 101.641L138.823 101.538C138.652 101.469 138.532 101.4 138.463 101.332C138.36 101.229 138.172 101.074 137.897 100.869C137.76 100.765 137.546 100.576 137.254 100.302C136.98 100.01 136.783 99.8041 136.662 99.6836C136.131 99.2203 135.436 98.4481 134.579 97.3664L134.142 96.7999C134.074 96.6966 133.988 96.5256 133.885 96.2853C133.782 96.0277 133.696 95.8476 133.627 95.7444C133.594 95.6759 133.533 95.5983 133.448 95.5124C133.379 95.4265 133.327 95.367 133.293 95.3324L133.241 95.1003C132.745 94.2935 132.445 93.7534 132.341 93.4784C132.273 93.2727 132.162 92.9548 132.007 92.5254C131.853 92.0968 131.742 91.7616 131.672 91.5212L131.518 91.0067C131.518 90.9721 131.518 90.9035 131.518 90.8003C131.518 90.6805 131.502 90.5856 131.467 90.5171C131.432 90.3799 131.416 90.1909 131.416 89.9506C131.416 89.882 131.373 89.7878 131.287 89.6673C131.219 89.5302 131.167 89.427 131.133 89.3584C131.098 89.256 131.081 89.1008 131.081 88.8951C131.081 88.6721 131.064 88.5087 131.03 88.4062C130.995 88.1312 130.979 87.7282 130.979 87.1956C130.944 86.8521 130.927 86.2946 130.927 85.5217ZM156.056 88.2774C156.038 87.3161 156.03 86.6118 156.03 86.1658C156.03 85.7025 156.038 84.9989 156.056 84.0542C156.073 83.093 156.081 82.372 156.081 81.8914C156.081 81.3934 156.064 80.6642 156.03 79.703C155.996 78.7244 155.978 78.0034 155.978 77.5401C155.978 77.0422 155.987 76.3212 156.004 75.3773C156.021 74.4326 156.03 73.7381 156.03 73.2913C156.03 72.828 156.038 72.1071 156.056 71.1285C156.073 70.1326 156.081 69.4117 156.081 68.9657C156.081 68.6907 156.099 68.4768 156.132 68.3216C156.27 68.0813 156.433 67.9012 156.622 67.7814C156.793 67.7814 156.913 67.7641 156.981 67.7295C157.05 67.7295 157.153 67.7385 157.29 67.7558C157.445 67.7724 157.556 67.7814 157.625 67.7814C158.019 67.7814 158.593 67.7724 159.348 67.7558C160.119 67.7385 160.702 67.7295 161.097 67.7295C161.234 67.7295 161.44 67.7641 161.714 67.8327L162.203 68.1672V68.4768C162.305 68.7856 162.357 68.9657 162.357 69.0169V72.7504C162.357 73.1798 162.365 73.8149 162.383 74.6564C162.4 75.4971 162.408 76.1322 162.408 76.5616C162.408 76.9736 162.4 77.6004 162.383 78.4411C162.365 79.2826 162.357 79.9177 162.357 80.3463V84.1318C162.357 84.5605 162.348 85.1963 162.332 86.037C162.314 86.8785 162.305 87.5135 162.305 87.9422C162.305 88.3369 162.323 88.9554 162.357 89.7961C162.391 90.6376 162.408 91.2726 162.408 91.702C162.408 92.1134 162.391 92.7401 162.357 93.5816C162.323 94.4223 162.305 95.0574 162.305 95.4868V95.9501C162.305 95.9848 162.314 96.0533 162.332 96.1565C162.348 96.259 162.357 96.3539 162.357 96.4398C162.426 96.937 162.529 97.2805 162.666 97.4696C162.871 97.8131 163.068 98.027 163.257 98.1129C163.463 98.1822 163.763 98.2161 164.157 98.2161H164.26L164.363 98.2673C164.432 98.302 164.483 98.302 164.518 98.2673C164.552 98.2673 164.586 98.2508 164.621 98.2161L164.672 98.1649C164.706 98.1649 164.758 98.1732 164.826 98.1905C164.895 98.2078 164.947 98.2161 164.98 98.2161C165.187 98.2161 165.538 98.2334 166.035 98.2673C166.532 98.302 166.883 98.3193 167.09 98.3193C167.398 98.3193 167.63 98.3532 167.784 98.4225C168.058 98.5596 168.212 98.6711 168.247 98.757C168.315 98.8602 168.35 99.0312 168.35 99.2715C168.384 99.3748 168.384 99.5382 168.35 99.7612C168.315 99.9669 168.298 100.105 168.298 100.173V103.237V103.907C168.23 104.216 167.99 104.43 167.578 104.55H166.883C166.352 104.55 165.555 104.559 164.492 104.576C163.446 104.593 162.657 104.602 162.125 104.602C161.611 104.602 160.814 104.61 159.734 104.628C158.671 104.645 157.873 104.653 157.342 104.653C157.239 104.653 157.05 104.619 156.776 104.55C156.604 104.55 156.424 104.43 156.236 104.19C156.167 104.155 156.132 104.044 156.132 103.855C156.03 103.546 155.978 103.374 155.978 103.34C155.978 102.877 155.996 102.173 156.03 101.229C156.064 100.285 156.081 99.5638 156.081 99.0659C156.081 98.5679 156.073 97.8387 156.056 96.8774C156.038 95.9162 156.03 95.2035 156.03 94.7402C156.03 94.2423 156.038 93.5213 156.056 92.5774C156.073 91.6327 156.081 90.9291 156.081 90.4658C156.081 89.9679 156.073 89.2386 156.056 88.2774ZM173.648 89.4104C173.648 89.0157 173.666 88.4145 173.7 87.6077C173.751 86.8009 173.777 86.1914 173.777 85.7793C173.777 85.3846 173.76 84.7925 173.725 84.003C173.708 83.2135 173.7 82.6123 173.7 82.2003C173.7 81.7716 173.682 81.1622 173.648 80.3727C173.614 79.5824 173.597 78.9903 173.597 78.5956C173.597 78.1662 173.614 77.5575 173.648 76.7672C173.682 75.9604 173.7 75.36 173.7 74.9652C173.7 74.6564 173.7 74.1584 173.7 73.4714C173.7 72.7851 173.682 72.2615 173.648 71.9007C173.648 71.5918 173.639 71.0939 173.623 70.4076C173.606 69.7213 173.597 69.1977 173.597 68.8369C173.597 68.8022 173.606 68.751 173.623 68.6824C173.639 68.6139 173.648 68.5619 173.648 68.528C173.682 68.4248 173.7 68.305 173.7 68.1672C173.768 67.9268 173.863 67.7814 173.983 67.7295C174.051 67.6956 174.137 67.6956 174.24 67.7295L174.394 67.7814H174.703C175.097 67.7814 175.672 67.7641 176.426 67.7295C177.181 67.6956 177.747 67.6782 178.124 67.6782C178.518 67.6782 179.092 67.6956 179.847 67.7295C180.602 67.7641 181.167 67.7814 181.544 67.7814C181.939 67.7814 182.513 67.7724 183.268 67.7558C184.022 67.7385 184.579 67.7295 184.94 67.7295H188.36C188.566 67.7295 188.72 67.7468 188.823 67.7814C189.063 67.85 189.192 67.9962 189.209 68.2191C189.278 68.4248 189.312 68.5792 189.312 68.6824C189.312 69.249 189.303 70.0897 189.286 71.2061C189.269 72.3045 189.261 73.1369 189.261 73.7034V74.0123C189.226 74.184 189.081 74.3046 188.823 74.3731H188.257L188.154 74.4243C187.811 74.4243 187.272 74.4161 186.534 74.3987C185.814 74.3814 185.266 74.3731 184.888 74.3731C184.545 74.3731 184.005 74.3987 183.268 74.45C182.548 74.4846 182.016 74.5019 181.673 74.5019H181.03C180.567 74.639 180.319 74.8447 180.284 75.1197V75.6606V79.3941C180.284 79.8227 180.292 80.4495 180.31 81.2737C180.344 82.0978 180.361 82.7155 180.361 83.1276C180.361 83.2301 180.395 83.4282 180.464 83.7197C180.567 83.96 180.739 84.0972 180.979 84.1318C181.013 84.1318 181.082 84.1747 181.184 84.2606C181.287 84.3292 181.381 84.3631 181.467 84.3631C181.861 84.3631 182.436 84.3465 183.19 84.3118C183.962 84.2606 184.545 84.235 184.94 84.235H188.463C188.566 84.235 188.686 84.2772 188.823 84.3631C188.96 84.3977 189.072 84.5348 189.157 84.7752C189.157 84.8098 189.166 84.8784 189.183 84.9816C189.2 85.084 189.209 85.1699 189.209 85.2392V90.2082V90.569C189.14 90.7408 189.011 90.8433 188.823 90.8779C188.617 90.9465 188.429 90.9894 188.257 91.0067H188.154C187.811 91.0067 187.272 90.9977 186.534 90.9811C185.814 90.9638 185.266 90.9547 184.888 90.9547H181.621C181.519 90.9547 181.322 90.9894 181.03 91.058C180.721 91.0926 180.532 91.2983 180.464 91.6757C180.395 91.9506 180.361 92.148 180.361 92.2686V96.1045V99.9669C180.361 100.396 180.37 101.04 180.387 101.898C180.404 102.756 180.413 103.392 180.413 103.804L180.361 104.19C180.327 104.43 180.147 104.55 179.821 104.55C179.615 104.585 179.332 104.602 178.972 104.602H174.548C174.514 104.602 174.429 104.619 174.291 104.653C174.154 104.688 174.051 104.688 173.983 104.653C173.846 104.619 173.777 104.482 173.777 104.241C173.743 104.173 173.717 104.044 173.7 103.855C173.7 103.46 173.682 102.868 173.648 102.078C173.614 101.272 173.597 100.671 173.597 100.276V96.6454C173.597 96.216 173.614 95.5983 173.648 94.7915C173.682 93.9846 173.7 93.3842 173.7 92.9895V89.4104H173.648ZM212.177 105.014C212.177 105.014 212.143 104.997 212.074 104.962C211.971 104.962 211.817 104.98 211.611 105.014C211.406 105.048 211.243 105.065 211.123 105.065C210.951 105.065 210.694 105.031 210.351 104.962C210.282 104.962 210.171 104.945 210.017 104.911C209.88 104.876 209.777 104.859 209.708 104.859C209.639 104.859 209.528 104.842 209.373 104.808C209.219 104.774 209.09 104.739 208.988 104.705L207.804 104.55C207.205 104.378 206.819 104.259 206.647 104.19C206.579 104.155 206.476 104.122 206.339 104.087C206.202 104.036 206.099 103.993 206.03 103.958C205.464 103.752 205.044 103.581 204.77 103.444C204.375 103.306 204.041 103.143 203.767 102.954C203.423 102.782 202.892 102.491 202.172 102.078C201.298 101.478 200.808 101.143 200.706 101.074L199.908 100.482C199.805 100.414 199.651 100.276 199.446 100.07C199.411 100.035 199.368 99.9842 199.317 99.9156C199.266 99.8471 199.206 99.7951 199.137 99.7612C199.085 99.71 199.042 99.667 199.008 99.6324C199.008 99.5977 198.974 99.5812 198.905 99.5812C198.905 99.5812 198.888 99.5812 198.854 99.5812V99.5292V99.478V99.4267L198.7 99.3747C198.631 99.3408 198.58 99.3062 198.546 99.2715L198.082 98.6538C198.048 98.5853 197.945 98.4994 197.774 98.3962C197.619 98.2764 197.525 98.1822 197.491 98.1129L196.925 97.3151C196.651 96.9716 196.454 96.714 196.333 96.5422L195.742 95.4868C195.639 95.3497 195.553 95.2035 195.484 95.0491C195.416 94.8774 195.339 94.6883 195.253 94.4826C195.168 94.2596 195.09 94.0961 195.022 93.9937C194.987 93.9244 194.944 93.8046 194.893 93.6328C194.842 93.4611 194.799 93.3413 194.764 93.2728L194.276 92.1134C194.104 91.6162 193.933 91.0497 193.761 90.4146C193.727 90.3114 193.701 90.1653 193.685 89.9769C193.667 89.7705 193.659 89.6161 193.659 89.5129C193.556 89.204 193.496 89.0157 193.478 88.9464C193.444 88.9125 193.444 88.8522 193.478 88.7663C193.513 88.6631 193.513 88.5945 193.478 88.5606C193.478 88.526 193.47 88.4748 193.453 88.4062C193.435 88.3369 193.427 88.2857 193.427 88.2518L193.273 87.6077V87.0924C193.273 87.0238 193.29 86.947 193.324 86.8611C193.359 86.7753 193.376 86.715 193.376 86.6811C193.376 86.6464 193.367 86.6118 193.35 86.5779C193.333 86.5266 193.324 86.4837 193.324 86.4491V86.3458C193.324 86.3119 193.316 86.2434 193.298 86.1402C193.281 86.037 193.273 85.9511 193.273 85.8825V85.7793V85.4705V84.7752C193.273 84.6727 193.298 84.5265 193.35 84.3375C193.402 84.1318 193.427 83.9774 193.427 83.8742C193.427 83.8056 193.427 83.6685 193.427 83.4621C193.427 83.2391 193.444 83.093 193.478 83.0244C193.478 82.9558 193.496 82.8873 193.53 82.8187C193.564 82.7494 193.581 82.6809 193.581 82.6123C193.616 82.5438 193.642 82.4496 193.659 82.3291C193.693 82.2093 193.71 82.1061 193.71 82.0202C193.744 81.917 193.796 81.7716 193.864 81.5825C193.933 81.3934 193.984 81.248 194.019 81.1448C194.053 81.0243 194.087 80.8443 194.122 80.6039C194.156 80.3636 194.19 80.1919 194.224 80.0894C194.259 79.9689 194.336 79.8062 194.456 79.5997C194.576 79.3941 194.653 79.2397 194.688 79.1365C194.739 79.0332 194.799 78.8615 194.867 78.6212C194.936 78.3643 195.004 78.1835 195.073 78.081C195.107 77.9778 195.185 77.8407 195.305 77.669C195.425 77.4799 195.502 77.3684 195.536 77.3337C195.605 77.2313 195.716 77.0075 195.871 76.6648C196.042 76.3039 196.179 76.038 196.282 75.8662C196.625 75.2997 196.908 74.8794 197.131 74.6044C197.199 74.5358 197.319 74.4326 197.491 74.2955C197.662 74.1411 197.783 74.0123 197.851 73.9091C197.885 73.8405 197.945 73.7464 198.031 73.6258C198.134 73.506 198.22 73.4284 198.288 73.3945C198.288 73.3599 198.271 73.317 198.237 73.2657C198.58 72.9222 198.854 72.6819 199.06 72.5448C199.094 72.5101 199.154 72.4416 199.24 72.3384C199.343 72.2186 199.437 72.1244 199.522 72.0559C199.608 71.9866 199.686 71.918 199.754 71.8495C199.789 71.8156 199.823 71.7726 199.857 71.7206C199.891 71.6694 199.934 71.6265 199.986 71.5918C200.037 71.5579 200.08 71.5233 200.115 71.4894L200.552 71.3342C200.894 71.06 201.177 70.8453 201.401 70.6908C201.897 70.2961 202.249 70.0302 202.455 69.8923L203.561 69.2746C203.835 69.1375 204.289 68.9574 204.924 68.7337C204.958 68.6998 205.053 68.6395 205.207 68.5536C205.361 68.4677 205.472 68.4075 205.542 68.3736C205.644 68.3389 205.782 68.296 205.953 68.2448C206.141 68.1935 206.27 68.1506 206.339 68.1159C207.076 67.9103 207.813 67.7468 208.551 67.627C208.859 67.5238 209.057 67.4726 209.142 67.4726C209.571 67.3694 209.794 67.3174 209.811 67.3174H210.351C210.385 67.3174 210.454 67.3174 210.557 67.3174C210.659 67.3174 210.728 67.3008 210.762 67.2662H211.406C211.44 67.2662 211.474 67.2488 211.508 67.2149L211.56 67.163H212.177H212.306H212.82C212.923 67.163 213.06 67.172 213.231 67.1893C213.42 67.2059 213.549 67.2149 213.617 67.2149H213.977C214.046 67.2149 214.14 67.2149 214.26 67.2149C214.381 67.2149 214.484 67.2323 214.569 67.2662C214.638 67.2662 214.74 67.2918 214.878 67.3438C215.015 67.395 215.118 67.4206 215.186 67.4206C215.323 67.4553 215.521 67.4892 215.778 67.5238C216.053 67.5577 216.258 67.5924 216.395 67.627C216.464 67.6609 216.558 67.6865 216.678 67.7039C216.816 67.7212 216.918 67.7295 216.986 67.7295C217.552 67.8327 218.059 67.9962 218.504 68.2191C218.933 68.3909 219.164 68.4768 219.199 68.4768L220.048 68.7856C220.151 68.8542 220.305 68.9657 220.51 69.1201C220.717 69.2572 220.871 69.3431 220.973 69.3778C221.042 69.4117 221.213 69.4976 221.488 69.6354C221.779 69.7725 222.003 69.8923 222.157 69.9955C222.225 70.0641 222.354 70.1499 222.542 70.2531C222.731 70.339 222.86 70.3993 222.928 70.4332C223.271 70.7082 223.554 70.9568 223.777 71.1797L224.368 71.6438C224.575 71.8495 224.729 71.9866 224.831 72.0559C225.071 72.2962 225.26 72.4762 225.397 72.596L225.783 72.9049C225.818 72.9395 225.852 72.9908 225.886 73.0601C225.92 73.1286 225.955 73.1798 225.989 73.2145C226.023 73.2484 226.092 73.3087 226.195 73.3945C226.298 73.4631 226.383 73.5317 226.452 73.6002C226.538 73.6688 226.649 73.8066 226.786 74.0123C226.821 74.0469 226.863 74.1238 226.915 74.2443C226.966 74.3641 227.026 74.4673 227.095 74.5532L227.558 75.1709C227.866 75.6003 228.064 75.8662 228.149 75.9694L228.613 76.5872C228.646 76.6218 228.689 76.6987 228.741 76.8192C228.81 76.9216 228.861 77.0166 228.895 77.1024C228.929 77.1883 228.964 77.2652 228.998 77.3337C229.204 77.6772 229.341 77.9432 229.409 78.1323C229.513 78.304 229.633 78.6046 229.77 79.0332C229.838 79.1711 229.907 79.3685 229.975 79.6254C230.061 79.8657 230.139 80.0548 230.207 80.1919C230.241 80.3297 230.301 80.5354 230.387 80.8104C230.473 81.0672 230.533 81.248 230.567 81.3505C230.601 81.4884 230.636 81.6857 230.67 81.9434C230.704 82.1837 230.738 82.3547 230.773 82.4579C230.807 82.5265 230.824 82.647 230.824 82.8187C230.824 82.9898 230.841 83.1359 230.876 83.2564C230.876 83.325 230.884 83.4365 230.902 83.5909C230.936 83.7453 230.953 83.8742 230.953 83.9774C231.021 84.1145 231.056 84.226 231.056 84.3118C231.056 84.3804 231.064 84.4663 231.081 84.5695C231.099 84.6727 231.107 84.7578 231.107 84.8271V84.8784C231.107 84.9469 231.116 85.0674 231.133 85.2392C231.15 85.3936 231.159 85.5217 231.159 85.6249C231.193 85.6935 231.185 85.7793 231.133 85.8825C231.082 85.9858 231.056 86.0716 231.056 86.1402C231.056 86.2087 231.073 86.3202 231.107 86.4747C231.142 86.6118 231.159 86.7323 231.159 86.8355C231.159 87.1444 231.142 87.3674 231.107 87.5045C231.107 87.573 231.073 87.7192 231.004 87.9422V88.303C231.004 88.4062 230.961 88.5689 230.876 88.7919V89.3584C230.876 89.427 230.85 89.5392 230.799 89.6937C230.747 89.8308 230.704 89.9505 230.67 90.0538C230.636 90.1909 230.593 90.3973 230.541 90.6715C230.49 90.9291 230.447 91.1265 230.413 91.2644C230.379 91.3668 230.318 91.5476 230.233 91.8045C230.147 92.0448 230.087 92.2166 230.053 92.3198C230.018 92.3883 229.984 92.4825 229.95 92.603C229.915 92.7228 229.899 92.8177 229.899 92.8863L229.564 93.5816C229.53 93.6841 229.444 93.8988 229.307 94.225C229.169 94.5338 229.05 94.7741 228.947 94.9459C228.672 95.3753 228.458 95.7098 228.304 95.9501C228.235 96.0533 228.141 96.2251 228.021 96.4654C227.901 96.6884 227.807 96.8518 227.738 96.9543C227.704 97.0228 227.609 97.1261 227.455 97.2632C227.317 97.401 227.215 97.5298 227.146 97.6496C227.077 97.7182 227.009 97.8297 226.94 97.9841C226.872 98.1393 226.804 98.2508 226.735 98.3193C226.632 98.4225 226.503 98.5853 226.349 98.8082C226.314 98.8429 226.255 98.8858 226.169 98.9371C226.083 98.9883 226.023 99.0312 225.989 99.0659C225.92 99.1344 225.8 99.2715 225.629 99.478C225.475 99.667 225.346 99.7951 225.243 99.8644L224.78 100.173C224.745 100.207 224.694 100.259 224.626 100.328L224.575 100.482L224.086 100.791L223.314 101.435C223.074 101.606 222.705 101.838 222.208 102.13C222.105 102.164 221.976 102.242 221.822 102.362C221.685 102.482 221.565 102.576 221.462 102.645C221.394 102.68 221.291 102.696 221.154 102.696C221.085 102.731 220.99 102.817 220.871 102.954C220.768 103.074 220.682 103.151 220.613 103.186C220.151 103.358 219.868 103.477 219.765 103.546L219.456 103.598C219.285 103.632 219.164 103.666 219.096 103.7C218.324 103.975 217.724 104.173 217.296 104.293C216.73 104.464 216.241 104.602 215.829 104.705C215.727 104.705 215.546 104.714 215.29 104.731C215.049 104.748 214.878 104.774 214.775 104.808L213.977 104.962C213.943 104.962 213.875 104.98 213.772 105.014C213.669 105.048 213.583 105.065 213.514 105.065C213.481 105.065 213.42 105.065 213.335 105.065C213.266 105.065 213.198 105.065 213.129 105.065C213.06 105.065 213.009 105.065 212.974 105.065C212.872 105.099 212.726 105.099 212.537 105.065C212.366 105.031 212.246 105.014 212.177 105.014ZM212.872 97.7528C214.415 97.6843 215.803 97.3664 217.038 96.7999C217.981 96.3366 219.121 95.4695 220.459 94.1994C221.591 93.0324 222.397 91.8218 222.877 90.569C223.477 89.2296 223.794 87.7877 223.828 86.2434C223.863 85.4705 223.794 84.5605 223.623 83.5133C223.417 82.7758 223.117 82.0029 222.723 81.1961C222.191 80.115 221.522 79.1282 220.717 78.2355C220.151 77.6004 219.713 77.162 219.404 76.9217C218.701 76.3559 217.895 75.8753 216.986 75.4798C216.181 75.085 215.375 74.8281 214.569 74.7076C213.694 74.5358 212.915 74.4417 212.228 74.4243C211.149 74.4243 210.042 74.5878 208.911 74.9133C208.139 75.1882 207.281 75.592 206.339 76.1239C205.396 76.7243 204.641 77.3081 204.075 77.8746C203.167 78.7846 202.48 79.6773 202.018 80.5527C201.675 81.2217 201.374 82.0631 201.118 83.0756C200.723 84.5522 200.535 85.5564 200.552 86.0882C200.552 86.8265 200.723 87.8307 201.066 89.1008C201.374 90.2685 201.743 91.2124 202.172 91.9333C202.566 92.6369 203.235 93.4701 204.178 94.4314C204.949 95.1689 205.79 95.7783 206.699 96.259C207.505 96.723 208.508 97.0921 209.708 97.3664C211.182 97.624 212.237 97.7528 212.872 97.7528ZM243.993 67.4726C244.525 67.575 244.782 67.627 244.765 67.627H244.816H244.97H245.022L245.099 67.575C245.133 67.575 245.15 67.5924 245.15 67.627C245.185 67.627 245.305 67.6609 245.511 67.7295L245.613 67.7814L245.716 67.8327C245.751 67.8673 245.768 68.0301 245.768 68.3216V68.6312V70.9997H245.87C245.87 71.2747 245.862 71.7124 245.845 72.3128C245.827 72.9139 245.819 73.3772 245.819 73.7034C245.819 73.8405 245.802 73.9437 245.768 74.0123C245.699 74.184 245.579 74.2872 245.408 74.3211H245.356C245.253 74.3211 245.125 74.2872 244.97 74.2187H244.816C244.782 74.2187 244.705 74.227 244.584 74.2443C244.465 74.2616 244.37 74.2699 244.301 74.2699C244.061 74.3046 243.727 74.3987 243.298 74.5532L242.656 75.0165C242.45 75.1197 242.261 75.2568 242.09 75.4285L241.704 75.9175C241.498 76.1924 241.395 76.3642 241.395 76.4327C241.395 76.4674 241.395 76.5442 241.395 76.6648C241.395 76.7672 241.378 76.8531 241.344 76.9217C241.173 77.3511 241.087 77.6087 241.087 77.6946L241.035 77.9258C241.035 77.9605 241.087 78.2355 241.19 78.75L241.498 79.4965L241.756 80.0374C241.824 80.106 241.901 80.2265 241.987 80.3983C242.09 80.57 242.158 80.6898 242.193 80.7584C242.33 80.8962 242.501 81.1448 242.707 81.5049C242.913 81.7799 243.058 81.9946 243.144 82.149L243.659 82.7668C243.727 82.87 243.821 82.9988 243.942 83.1532C244.079 83.2903 244.182 83.4109 244.25 83.5133C244.319 83.6165 244.422 83.7453 244.559 83.8998C244.696 84.0542 244.765 84.1491 244.765 84.183C244.833 84.2862 244.902 84.3894 244.97 84.4919C245.056 84.5778 245.142 84.6637 245.228 84.7495C245.314 84.8354 245.373 84.913 245.408 84.9816C245.682 85.4102 245.837 85.6596 245.87 85.7281L246.308 86.3458C246.548 86.8091 246.702 87.0585 246.771 87.0924C246.805 87.1956 246.891 87.3244 247.028 87.4789C247.165 87.616 247.259 87.7019 247.311 87.7365C247.379 87.8051 247.439 87.9083 247.491 88.0454C247.542 88.1825 247.603 88.2857 247.671 88.3542C247.808 88.5606 247.894 88.7234 247.928 88.8439C248.1 89.1181 248.237 89.3931 248.34 89.6673C248.477 89.8737 248.571 90.0364 248.623 90.157L248.932 91.2124C249 91.3841 249.069 91.7186 249.137 92.2166C249.172 92.2512 249.188 92.3198 249.188 92.423C249.188 92.5254 249.188 92.6113 249.188 92.6799C249.188 92.7145 249.197 92.7748 249.214 92.8607C249.231 92.9466 249.24 93.0234 249.24 93.0919V93.736C249.24 94.0103 249.223 94.225 249.188 94.3794L249.24 94.4314C249.205 94.4999 249.188 94.6031 249.188 94.7402C249.188 94.8774 249.172 94.9806 249.137 95.0491C249.137 95.3926 249.12 95.6586 249.086 95.8476L248.932 96.6454C248.863 96.9543 248.725 97.4266 248.52 98.0617C248.451 98.1988 248.331 98.4135 248.159 98.705C248.005 98.98 247.894 99.1691 247.825 99.2715C247.791 99.3062 247.731 99.4433 247.646 99.6836C247.56 99.9074 247.482 100.07 247.414 100.173C247.208 100.516 247.028 100.765 246.873 100.92C246.737 101.125 246.633 101.263 246.565 101.332C246.393 101.538 246.128 101.787 245.768 102.078C245.562 102.284 245.408 102.422 245.304 102.491C245.271 102.524 245.039 102.705 244.61 103.031L244.199 103.34C244.061 103.444 243.813 103.598 243.453 103.804C243.35 103.872 243.239 103.924 243.118 103.958C242.999 103.993 242.853 104.044 242.681 104.112C242.527 104.164 242.398 104.207 242.295 104.241C241.489 104.585 241.035 104.774 240.932 104.808C240.658 104.876 240.306 104.945 239.877 105.014H239.826C239.723 105.014 239.629 104.997 239.543 104.962H239.286H239.235V105.065H239.184L237.974 105.014C237.941 105.014 237.889 105.031 237.82 105.065H237.717H237.615C237.58 105.065 237.469 105.04 237.28 104.988C237.108 104.937 236.971 104.894 236.868 104.859C236.8 104.825 236.688 104.8 236.534 104.782C236.38 104.765 236.259 104.757 236.174 104.757C235.831 104.688 235.574 104.619 235.402 104.55L234.965 104.344C234.794 104.241 234.708 104.095 234.708 103.907C234.708 103.872 234.691 103.821 234.657 103.752C234.588 103.615 234.554 103.512 234.554 103.444V98.4738C234.554 98.4391 234.571 98.3796 234.605 98.2937C234.639 98.2078 234.657 98.1476 234.657 98.1129C234.657 97.9412 234.691 97.8214 234.76 97.7528H235.402H235.505H235.66H235.865H235.968C236.037 97.7528 236.114 97.7611 236.2 97.7784C236.302 97.7958 236.372 97.8041 236.405 97.8041C236.44 97.8041 236.499 97.8214 236.585 97.856C236.671 97.8899 236.749 97.9073 236.817 97.9073H236.868H236.971L237.074 97.856C237.143 97.8214 237.194 97.8041 237.229 97.8041C237.469 97.8041 237.666 97.7867 237.82 97.7528C238.249 97.7528 238.566 97.7182 238.772 97.6496C239.081 97.5464 239.432 97.401 239.826 97.2119C239.929 97.1773 240.049 97.1087 240.187 97.0063C240.324 96.9031 240.427 96.8345 240.495 96.7999C240.735 96.5942 240.966 96.3622 241.19 96.1045C241.258 96.036 241.335 95.9328 241.421 95.7957C241.507 95.6586 241.55 95.5727 241.55 95.538C241.584 95.4695 241.627 95.3753 241.678 95.2548C241.729 95.1177 241.756 95.0318 241.756 94.9979C241.858 94.7915 241.918 94.6717 241.936 94.637V94.5338C241.936 94.4653 241.927 94.3711 241.91 94.2506C241.893 94.1135 241.884 94.0103 241.884 93.9417C241.884 93.6328 241.824 93.3157 241.704 92.9895C241.567 92.5601 241.43 92.2256 241.292 91.9853C241.155 91.7789 240.89 91.4354 240.495 90.9547C240.427 90.8523 240.238 90.5856 239.929 90.157C239.826 90.0199 239.723 89.882 239.621 89.7449C239.535 89.5905 239.449 89.436 239.364 89.2816C239.278 89.1272 239.2 88.9983 239.132 88.8951L238.335 87.9422C238.266 87.8736 238.189 87.7621 238.103 87.6077C238.017 87.4359 237.957 87.3161 237.923 87.2476C237.855 87.1783 237.76 87.0412 237.64 86.8355C237.52 86.6118 237.418 86.4664 237.332 86.3978C236.989 85.9338 236.8 85.6935 236.766 85.6769C236.697 85.5737 236.603 85.4102 236.483 85.1872C236.363 84.9469 236.259 84.7752 236.174 84.6727C236.14 84.6034 236.046 84.4919 235.891 84.3375C235.736 84.1657 235.625 84.0286 235.557 83.9254C235.488 83.8229 235.394 83.6768 235.274 83.4877C235.171 83.282 235.102 83.1449 235.068 83.0756C234.828 82.5784 234.691 82.2861 234.657 82.2003C234.657 82.1664 234.605 81.969 234.502 81.6081C234.468 81.5396 234.399 81.4108 234.296 81.2217C234.194 81.016 234.116 80.8616 234.065 80.7584C234.031 80.6898 234.013 80.5783 234.013 80.4239C234.013 80.2695 234.013 80.158 234.013 80.0894L233.859 79.2397C233.859 79.205 233.842 79.1447 233.808 79.0589C233.773 78.973 233.757 78.9135 233.757 78.8788C233.757 78.8103 233.765 78.7071 233.782 78.5699C233.8 78.4155 233.808 78.2867 233.808 78.1835C233.773 78.081 233.757 77.8837 233.757 77.5914V77.5401C233.757 77.4716 233.765 77.3767 233.782 77.2569C233.8 77.1363 233.825 77.0422 233.859 76.9736V76.1751C233.894 76.1065 233.945 75.9868 234.013 75.815C234.099 75.6432 234.142 75.5144 234.142 75.4285L234.296 74.9133C234.331 74.8447 234.365 74.6903 234.399 74.45C234.434 74.1923 234.485 74.0123 234.554 73.9091C234.657 73.6349 234.794 73.3343 234.965 73.0081C235 72.9742 235.034 72.9049 235.068 72.8024C235.102 72.6992 235.137 72.6307 235.171 72.596C235.274 72.3557 235.471 72.0212 235.763 71.5918L236.354 70.8453L236.766 70.4332L236.92 70.33L236.868 70.2275C236.868 70.1929 236.895 70.1673 236.946 70.1499C236.997 70.1326 237.057 70.107 237.126 70.0731C237.194 70.0211 237.246 69.9782 237.28 69.9443L237.229 69.8411C237.434 69.6354 237.717 69.3951 238.077 69.1201C238.181 69.0169 238.369 68.9054 238.643 68.7856C238.935 68.6478 239.114 68.5619 239.184 68.528C239.526 68.3563 239.912 68.2018 240.341 68.0647C240.907 67.8583 241.327 67.7129 241.601 67.627C241.772 67.5924 242.021 67.575 242.347 67.575H242.45H242.604H242.81H242.939C243.042 67.575 243.204 67.5577 243.427 67.5238C243.667 67.4892 243.856 67.4726 243.993 67.4726Z" fill="#FFE7D1"/>
</svg>
